<?xml version="1.0" standalone="no"?>
<!DOCTYPE svg PUBLIC "-//W3C//DTD SVG 20010904//EN"
 "http://www.w3.org/TR/2001/REC-SVG-20010904/DTD/svg10.dtd">
<svg version="1.0" xmlns="http://www.w3.org/2000/svg"
 width="320.000000pt" height="320.000000pt" viewBox="0 0 320.000000 320.000000"
 preserveAspectRatio="xMidYMid meet">

<g transform="translate(0.000000,320.000000) scale(0.100000,-0.100000)"
fill="#000000" stroke="none">
<path d="M1996 2339 c-2 -8 -7 -96 -10 -196 -5 -150 -3 -183 8 -183 17 0 34
366 17 383 -7 7 -12 6 -15 -4z"/>
<path d="M2405 1955 c-103 -128 -114 -145 -96 -145 12 0 211 246 211 261 0 22
-21 1 -115 -116z"/>
<path d="M2182 2020 c-32 -55 -41 -87 -22 -75 16 10 62 105 57 118 -2 7 -18
-13 -35 -43z"/>
<path d="M1489 2033 c5 -10 62 -70 127 -133 77 -76 119 -110 122 -101 5 15
-226 251 -247 251 -8 0 -9 -5 -2 -17z"/>
<path d="M1780 2041 c0 -16 57 -128 69 -135 25 -16 19 20 -11 76 -32 58 -58
84 -58 59z"/>
<path d="M1957 1806 c-58 -21 -111 -62 -135 -105 -32 -56 -27 -60 19 -16 48
46 49 50 -16 -99 -48 -110 -52 -116 -103 -147 -55 -34 -71 -34 -53 -1 6 12 11
28 11 36 0 20 -26 21 -37 2 -6 -12 -93 -56 -109 -56 -2 0 2 11 8 25 18 40 -2
52 -53 32 -31 -12 -46 -14 -56 -6 -10 9 -22 3 -53 -25 -22 -20 -43 -36 -46
-36 -3 0 -3 16 0 35 10 54 -15 56 -69 6 -49 -45 -74 -54 -50 -17 13 20 14 25
1 35 -19 16 -46 -22 -46 -65 0 -50 39 -53 92 -6 16 13 19 12 37 -9 16 -20 22
-22 43 -12 20 9 26 8 35 -5 8 -14 15 -11 54 21 l44 38 5 -28 c7 -38 38 -41 91
-8 33 22 43 24 50 13 5 -7 9 -16 9 -20 0 -4 9 -10 21 -13 14 -5 34 2 61 20 38
26 41 26 35 6 -2 -11 1 -25 8 -31 10 -9 16 -6 25 10 12 22 12 22 31 -9 20 -32
59 -43 59 -16 0 8 -4 15 -10 15 -5 0 -14 9 -20 20 -9 17 -6 24 20 47 40 33 38
69 -3 66 -15 -1 -27 0 -27 3 0 2 21 48 46 102 36 78 43 101 34 115 -9 15 -5
20 32 37 135 61 297 -40 314 -198 5 -39 1 -57 -25 -107 -16 -32 -28 -61 -26
-63 8 -8 56 49 71 83 35 85 11 188 -61 261 -76 76 -169 101 -258 70z"/>
<path d="M970 1740 c-50 -27 -166 -129 -227 -202 -52 -61 -56 -63 -137 -85
-124 -33 -161 -50 -147 -67 10 -12 25 -10 98 15 48 16 88 27 90 25 3 -2 -7
-21 -20 -43 -42 -66 -78 -143 -72 -153 12 -20 24 -8 71 76 72 129 85 140 172
149 40 4 75 5 78 3 2 -3 -3 -24 -11 -48 -18 -51 -19 -92 -3 -108 18 -18 30
-14 23 8 -6 19 3 59 27 123 9 23 16 27 47 27 20 0 46 -3 57 -6 20 -5 21 -9 11
-40 -8 -26 -7 -37 2 -47 11 -9 15 -9 19 2 10 28 75 91 93 91 24 0 25 16 2 29
-11 6 -24 6 -36 -1 -13 -6 -23 -6 -33 3 -12 10 -16 9 -21 -9 -6 -23 -19 -29
-25 -11 -2 5 -22 13 -46 16 -23 3 -42 7 -42 8 0 1 19 42 41 91 51 110 59 136
47 157 -11 21 -14 21 -58 -3z m-27 -146 l-48 -99 -75 -3 -75 -3 55 57 c72 74
184 167 188 156 1 -5 -19 -54 -45 -108z"/>
<path d="M2447 1716 c-50 -14 -64 -22 -54 -32 10 -11 117 19 117 33 0 15 -1
15 -63 -1z"/>
<path d="M1686 1563 c-9 -22 10 -41 25 -26 13 13 5 43 -10 43 -5 0 -12 -8 -15
-17z"/>
<path d="M2390 1540 c0 -11 24 -15 202 -35 169 -18 178 -19 178 -1 0 16 -19
20 -194 36 -137 13 -186 13 -186 0z"/>
<path d="M1923 1468 c-72 -79 -41 -133 39 -68 35 29 37 30 40 9 8 -52 58 -50
132 7 67 51 46 68 -25 20 -68 -46 -79 -46 -72 -1 5 31 3 36 -21 45 -42 16 -71
12 -93 -12z"/>
<path d="M2302 1388 c6 -17 190 -148 200 -142 4 3 8 7 8 9 0 2 -42 36 -94 74
-89 68 -122 85 -114 59z"/>
<path d="M1787 1253 c-10 -10 -8 -103 2 -103 5 0 11 25 13 55 3 52 0 63 -15
48z"/>
<path d="M1828 1253 c15 -6 16 -43 0 -43 -6 0 -8 -3 -5 -6 4 -4 13 -1 22 6 13
11 15 8 15 -24 0 -20 5 -36 10 -36 6 0 10 24 10 53 0 52 0 52 -33 53 -17 1
-26 -1 -19 -3z"/>
<path d="M1907 1242 c-10 -10 -17 -28 -17 -40 0 -23 25 -52 43 -52 7 0 4 5 -5
11 -22 13 -24 62 -2 83 8 9 11 16 6 16 -5 0 -16 -8 -25 -18z"/>
<path d="M1988 1253 c31 -4 32 -5 32 -54 0 -28 5 -49 11 -49 5 0 9 8 8 18 -5
49 2 82 16 82 11 0 15 -11 15 -38 0 -37 14 -62 34 -62 6 0 5 5 -2 12 -7 7 -12
31 -12 55 l0 43 -67 -2 c-38 0 -53 -3 -35 -5z"/>
<path d="M2181 1203 c1 -32 4 -46 6 -30 5 34 16 34 37 2 9 -14 21 -25 27 -25
6 0 1 14 -11 30 -12 17 -28 30 -37 30 -11 0 -14 7 -11 25 3 14 1 25 -3 25 -5
0 -8 -26 -8 -57z"/>
<path d="M2218 1253 c6 -2 12 -14 12 -26 0 -16 3 -18 11 -10 16 16 4 43 -18
42 -11 0 -13 -3 -5 -6z"/>
<path d="M2270 1205 l0 -55 38 1 c31 2 33 3 9 6 -28 4 -29 6 -25 54 2 34 -1
49 -9 49 -9 0 -13 -18 -13 -55z"/>
<path d="M2318 1253 c7 -3 16 -2 19 1 4 3 -2 6 -13 5 -11 0 -14 -3 -6 -6z"/>
<path d="M2152 1213 c-1 -28 -8 -45 -19 -52 -10 -6 -13 -11 -7 -11 22 0 35 29
31 67 l-4 38 -1 -42z"/>
</g>
</svg>
